<?xml version="1.0" encoding="UTF-8" standalone="no"?>
<!DOCTYPE svg PUBLIC "-//W3C//DTD SVG 1.1//EN" "http://www.w3.org/Graphics/SVG/1.1/DTD/svg11.dtd">
<svg version="1.1" xmlns="http://www.w3.org/2000/svg" xmlns:xl="http://www.w3.org/1999/xlink" xmlns:dc="http://purl.org/dc/elements/1.1/" viewBox="-81 0 112 112" width="112" height="112">
  <defs/>
  <g id="Canvas_1" stroke-opacity="1" stroke="none" fill-opacity="1" stroke-dasharray="none" fill="none">
    <title>Canvas 1</title>
    <rect fill="#0432ff" x="-81" y="0" width="112" height="112"/>
    <g id="Canvas_1_Layer_1">
      <title>Layer 1</title>
      <g id="Graphic_3">
        <path d="M 12.333333 77.33333 C 12.333333 80.27885 9.945519 82.66667 7 82.66667 L -57 82.66667 C -59.94552 82.66667 -62.33333 80.27885 -62.33333 77.33333 L -62.33333 45.333333 C -62.33333 42.387815 -59.94552 40 -57 40 L -50.749333 40 C -46.508065 39.99768 -42.441243 38.311484 -39.442667 35.312 L -35.016 30.896 C -34.018654 29.898346 -32.666675 29.33646 -31.256 29.333333 L -18.754667 29.333333 C -17.340294 29.333635 -15.983961 29.895737 -14.984 30.896 L -10.568 35.312 C -7.56681 38.314097 -3.495632 40.00051 .7493333 40 L 7 40 C 9.945519 40 12.333333 42.387815 12.333333 45.333333 Z M -57 34.666667 C -62.89104 34.666667 -67.66667 39.442296 -67.66667 45.333333 L -67.66667 77.33333 C -67.66667 83.22437 -62.89104 88 -57 88 L 7 88 C 12.891037 88 17.666667 83.22437 17.666667 77.33333 L 17.666667 45.333333 C 17.666667 39.442296 12.891037 34.666667 7 34.666667 L .7493333 34.666667 C -2.0794113 34.666063 -4.7920775 33.54186 -6.792 31.541333 L -11.208 27.125333 C -13.207922 25.124807 -15.920589 24.000604 -18.749333 24 L -31.250667 24 C -34.07941 24.000604 -36.792078 25.124807 -38.792 27.125333 L -43.208 31.541333 C -45.20792 33.54186 -47.92059 34.666063 -50.749333 34.666667 Z" fill="white"/>
      </g>
      <g id="Graphic_6">
        <path d="M -25 83 C -25 83 -7 65.942 -7 53 C -7 43.058875 -15.058875 35 -25 35 C -34.941125 35 -43 43.058875 -43 53 C -43 65.942 -25 83 -25 83 Z M -25 62 C -29.970563 62 -34 57.97056 -34 53 C -34 48.02944 -29.970563 44 -25 44 C -20.029437 44 -16 48.02944 -16 53 C -16 57.97056 -20.029437 62 -25 62 Z" fill="white"/>
      </g>
    </g>
  </g>
</svg>
